<svg width="16" height="16" viewBox="0 0 16 16" fill="none" xmlns="http://www.w3.org/2000/svg">
<path opacity="0.4" d="M14.6666 8.00065C14.6666 11.6825 11.6818 14.6673 7.99992 14.6673C4.31802 14.6673 1.33325 11.6825 1.33325 8.00065C1.33325 4.31875 4.31802 1.33398 7.99992 1.33398C11.6818 1.33398 14.6666 4.31875 14.6666 8.00065Z" fill="#171719"/>
<path fill-rule="evenodd" clip-rule="evenodd" d="M4.9797 8.35355C4.78444 8.15829 4.78444 7.84171 4.9797 7.64645L6.9797 5.64645C7.17496 5.45118 7.49154 5.45118 7.68681 5.64645C7.88207 5.84171 7.88207 6.15829 7.68681 6.35355L6.54036 7.5L10.6666 7.5C10.9427 7.5 11.1666 7.72386 11.1666 8C11.1666 8.27614 10.9427 8.5 10.6666 8.5L6.54036 8.5L7.68681 9.64645C7.88207 9.84171 7.88207 10.1583 7.68681 10.3536C7.49154 10.5488 7.17496 10.5488 6.9797 10.3536L4.9797 8.35355Z" fill="#171719"/>
</svg>
