<svg width="40" height="40" viewBox="0 0 40 40" fill="none" xmlns="http://www.w3.org/2000/svg">
<rect width="40" height="40" rx="20" fill="#F0E8FE"/>
<path d="M16.5248 13.8H18.4128V21.768C18.4128 22.4507 18.2635 23.0427 17.9648 23.544C17.6768 24.0453 17.2768 24.4347 16.7648 24.712C16.2635 24.9787 15.6875 25.112 15.0368 25.112C14.2475 25.112 13.5808 24.92 13.0368 24.536C12.5035 24.152 12.1301 23.6133 11.9168 22.92L13.5488 22.408C13.6128 22.632 13.7088 22.8293 13.8368 23C13.9755 23.16 14.1408 23.288 14.3328 23.384C14.5355 23.48 14.7701 23.528 15.0368 23.528C15.3461 23.528 15.6075 23.4533 15.8208 23.304C16.0448 23.1547 16.2155 22.9573 16.3328 22.712C16.4608 22.456 16.5248 22.1733 16.5248 21.864V13.8ZM21.9871 21.928C22.0511 22.2267 22.1737 22.4987 22.3551 22.744C22.5471 22.9787 22.7977 23.1653 23.1071 23.304C23.4271 23.4427 23.8057 23.512 24.2431 23.512C24.9151 23.512 25.4164 23.3573 25.7471 23.048C26.0777 22.728 26.2431 22.3547 26.2431 21.928C26.2431 21.576 26.1364 21.2827 25.9231 21.048C25.7204 20.8133 25.4324 20.616 25.0591 20.456C24.6857 20.2853 24.2591 20.1253 23.7791 19.976C23.3417 19.848 22.9204 19.7147 22.5151 19.576C22.1097 19.4267 21.7417 19.2453 21.4111 19.032C21.0911 18.808 20.8351 18.5253 20.6431 18.184C20.4511 17.832 20.3604 17.3947 20.3711 16.872C20.3711 16.1893 20.5311 15.6133 20.8511 15.144C21.1711 14.664 21.6191 14.3013 22.1951 14.056C22.7711 13.8107 23.4324 13.688 24.1791 13.688C24.8084 13.688 25.3737 13.7787 25.8751 13.96C26.3871 14.1307 26.8191 14.3867 27.1711 14.728C27.5231 15.0587 27.7844 15.4693 27.9551 15.96L26.2111 16.536C26.1471 16.3013 26.0191 16.0933 25.8271 15.912C25.6351 15.72 25.3951 15.5707 25.1071 15.464C24.8297 15.3573 24.5257 15.2987 24.1951 15.288C23.8324 15.2773 23.5071 15.3307 23.2191 15.448C22.9417 15.5653 22.7177 15.736 22.5471 15.96C22.3764 16.1733 22.2911 16.424 22.2911 16.712C22.2911 17.0427 22.3871 17.304 22.5791 17.496C22.7711 17.6773 23.0217 17.832 23.3311 17.96C23.6511 18.0773 24.0031 18.2 24.3871 18.328C24.8351 18.456 25.2777 18.6053 25.7151 18.776C26.1631 18.936 26.5684 19.144 26.9311 19.4C27.3044 19.6453 27.6031 19.96 27.8271 20.344C28.0511 20.728 28.1631 21.208 28.1631 21.784C28.1631 22.4027 28.0191 22.9627 27.7311 23.464C27.4537 23.9653 27.0271 24.3653 26.4511 24.664C25.8751 24.9627 25.1604 25.112 24.3071 25.112C23.6137 25.112 22.9791 25.0107 22.4031 24.808C21.8377 24.5947 21.3631 24.296 20.9791 23.912C20.6057 23.5173 20.3604 23.0533 20.2431 22.52L21.9871 21.928Z" fill="#131316"/>
</svg>
