<svg width="40" height="41" viewBox="0 0 40 41" fill="none" xmlns="http://www.w3.org/2000/svg">
<rect y="0.5" width="40" height="40" rx="20" fill="#80150D"/>
<path opacity="0.4" d="M30 20.5C30 26.0228 25.5228 30.5 20 30.5C14.4772 30.5 10 26.0228 10 20.5C10 14.9772 14.4772 10.5 20 10.5C25.5228 10.5 30 14.9772 30 20.5Z" fill="#F2F6FF"/>
<path fill-rule="evenodd" clip-rule="evenodd" d="M20.75 16.5C20.75 16.0858 20.4142 15.75 20 15.75C19.5858 15.75 19.25 16.0858 19.25 16.5V19.75H16C15.5858 19.75 15.25 20.0858 15.25 20.5C15.25 20.9142 15.5858 21.25 16 21.25H19.25V24.5C19.25 24.9142 19.5858 25.25 20 25.25C20.4142 25.25 20.75 24.9142 20.75 24.5V21.25H24C24.4142 21.25 24.75 20.9142 24.75 20.5C24.75 20.0858 24.4142 19.75 24 19.75H20.75V16.5Z" fill="#F2F6FF"/>
</svg>
