<svg width="20" height="20" viewBox="0 0 20 20" fill="none" xmlns="http://www.w3.org/2000/svg">
<path opacity="0.4" d="M9.99999 1.6665C11.3704 1.6665 12.7197 2.00448 13.9283 2.65049C15.1369 3.29651 16.1675 4.23062 16.9289 5.37009C17.6903 6.50955 18.1589 7.8192 18.2932 9.18303C18.4275 10.5469 18.2234 11.9228 17.699 13.1889C17.1745 14.455 16.346 15.5722 15.2866 16.4416C14.2273 17.311 12.9698 17.9057 11.6257 18.173C10.2817 18.4404 8.89237 18.3722 7.58095 17.9743C6.26954 17.5765 5.07647 16.8614 4.10744 15.8924L7.07471 12.9251C7.55577 13.4062 8.14806 13.7612 8.79909 13.9587C9.45013 14.1562 10.1398 14.19 10.8071 14.0573C11.4743 13.9246 12.0986 13.6294 12.6245 13.1978C13.1504 12.7662 13.5617 12.2115 13.8221 11.583C14.0824 10.9544 14.1837 10.2714 14.117 9.59434C14.0504 8.91729 13.8177 8.26713 13.4398 7.70146C13.0618 7.13578 12.5501 6.67206 11.9501 6.35135C11.3501 6.03065 10.6803 5.86286 9.99999 5.86286V1.6665Z" fill="#171719"/>
<path d="M4.10743 15.8924C2.942 14.727 2.14832 13.2421 1.82678 11.6256C1.50524 10.0091 1.67026 8.33353 2.30099 6.81081C2.93172 5.28809 3.99983 3.9866 5.37024 3.07092C6.74065 2.15525 8.35181 1.6665 9.99999 1.6665V5.86286C9.18177 5.86286 8.38193 6.10549 7.70161 6.56007C7.02129 7.01465 6.49104 7.66075 6.17792 8.41669C5.86481 9.17262 5.78288 10.0044 5.94251 10.8069C6.10213 11.6094 6.49614 12.3466 7.07471 12.9251L4.10743 15.8924Z" fill="#171719"/>
<path d="M18.3333 9.99984C18.3333 11.0942 18.1178 12.1778 17.699 13.1889C17.2802 14.1999 16.6664 15.1186 15.8925 15.8924L12.9253 12.9251C13.3094 12.541 13.6142 12.0849 13.8221 11.583C14.03 11.0811 14.137 10.5431 14.137 9.99984H18.3333Z" fill="#171719"/>
</svg>
