<svg width="20" height="20" viewBox="0 0 20 20" fill="none" xmlns="http://www.w3.org/2000/svg">
<path opacity="0.4" d="M15 3.3335C15.9205 3.3335 16.6667 4.07969 16.6667 5.00016C16.6667 5.92064 15.9205 6.66683 15 6.66683L8.33335 6.66683C7.41288 6.66683 6.66669 5.92064 6.66669 5.00016C6.66669 4.07969 7.41288 3.3335 8.33335 3.3335L15 3.3335Z" fill="#171719"/>
<path opacity="0.4" d="M15 10C15.9205 10 16.6667 10.7462 16.6667 11.6667C16.6667 12.5871 15.9205 13.3333 15 13.3333L8.33335 13.3333C7.41288 13.3333 6.66669 12.5871 6.66669 11.6667C6.66669 10.7462 7.41288 10 8.33335 10L15 10Z" fill="#171719"/>
<rect x="13.3333" y="6.66699" width="3.33333" height="10" rx="1.66667" transform="rotate(90 13.3333 6.66699)" fill="#171719"/>
<rect x="14.1667" y="13.3335" width="3.33333" height="10" rx="1.66667" transform="rotate(90 14.1667 13.3335)" fill="#171719"/>
</svg>
