<svg width="40" height="41" viewBox="0 0 40 41" fill="none" xmlns="http://www.w3.org/2000/svg">
<rect y="0.5" width="40" height="40" rx="20" fill="#3F800D"/>
<path opacity="0.4" d="M30 20.5C30 26.0228 25.5228 30.5 20 30.5C14.4772 30.5 10 26.0228 10 20.5C10 14.9772 14.4772 10.5 20 10.5C25.5228 10.5 30 14.9772 30 20.5Z" fill="#ECECED"/>
<path fill-rule="evenodd" clip-rule="evenodd" d="M24.4605 16.908C24.7874 17.1623 24.8463 17.6335 24.592 17.9605L20.585 23.1123C19.9613 23.9143 18.7881 24.0183 18.033 23.3387L15.4983 21.0575C15.1904 20.7804 15.1654 20.3062 15.4425 19.9983C15.7196 19.6904 16.1938 19.6655 16.5017 19.9426L19.0364 22.2238C19.1443 22.3209 19.3119 22.306 19.401 22.1914L23.408 17.0396C23.6623 16.7126 24.1335 16.6537 24.4605 16.908Z" fill="#ECECED"/>
</svg>
