<svg width="20" height="20" viewBox="0 0 20 20" fill="none" xmlns="http://www.w3.org/2000/svg">
<ellipse cx="4.99998" cy="3.33317" rx="1.66667" ry="1.66667" fill="#171719"/>
<ellipse opacity="0.4" cx="5" cy="6.66667" rx="2.5" ry="1.66667" fill="#171719"/>
<circle cx="15" cy="13.3332" r="1.66667" fill="#171719"/>
<path fill-rule="evenodd" clip-rule="evenodd" d="M9.37499 1.6665C9.37499 1.32133 9.65481 1.0415 9.99999 1.0415C14.9475 1.0415 18.9583 5.05229 18.9583 9.99984C18.9583 10.345 18.6785 10.6248 18.3333 10.6248C17.9881 10.6248 17.7083 10.345 17.7083 9.99984C17.7083 5.74264 14.2572 2.2915 9.99999 2.2915C9.65481 2.2915 9.37499 2.01168 9.37499 1.6665ZM1.66666 9.37484C2.01183 9.37484 2.29166 9.65466 2.29166 9.99984C2.29166 14.257 5.74279 17.7082 9.99999 17.7082C10.3452 17.7082 10.625 17.988 10.625 18.3332C10.625 18.6783 10.3452 18.9582 9.99999 18.9582C5.05244 18.9582 1.04166 14.9474 1.04166 9.99984C1.04166 9.65466 1.32148 9.37484 1.66666 9.37484Z" fill="#171719"/>
<ellipse opacity="0.4" cx="15" cy="16.6667" rx="2.5" ry="1.66667" fill="#171719"/>
</svg>
