<svg width="20" height="20" viewBox="0 0 20 20" fill="none" xmlns="http://www.w3.org/2000/svg">
<path opacity="0.4" d="M15.4507 3.10223L17.8857 5.87624C18.4509 6.52001 18.4845 7.47958 17.9659 8.1623L11.4045 16.7997C10.6952 17.7334 9.30481 17.7334 8.59551 16.7997L2.03412 8.1623C1.51549 7.47958 1.54912 6.52001 2.11423 5.87624L4.54931 3.10223C4.88557 2.71917 5.36754 2.5 5.87367 2.5H8.42494H11.7719H14.1263C14.6324 2.5 15.1144 2.71917 15.4507 3.10223Z" fill="#171719"/>
<path d="M17.7083 6.36094C18.0535 6.36094 18.3333 6.64076 18.3333 6.98594C18.3333 7.33112 18.0535 7.61094 17.7083 7.61094L2.29166 7.61084C1.94648 7.61084 1.66666 7.33102 1.66666 6.98584C1.66666 6.64066 1.94648 6.36084 2.29166 6.36084L17.7083 6.36094Z" fill="#171719"/>
</svg>
