<svg width="20" height="20" viewBox="0 0 20 20" fill="none" xmlns="http://www.w3.org/2000/svg">
<g opacity="0.4">
<path d="M14.1667 9.99967C14.1667 10.9201 13.4205 11.6663 12.5 11.6663H5.83334V14.1663C5.83334 15.0868 6.57954 15.833 7.50001 15.833H15.8333C16.7538 15.833 17.5 15.0868 17.5 14.1663V7.49967C17.5 6.5792 16.7538 5.83301 15.8333 5.83301H14.1667V9.99967Z" fill="#171719"/>
</g>
<path d="M3.125 12.5H12.5893C13.4605 12.5 14.1667 11.7538 14.1667 10.8333V4.16667C14.1667 3.24619 13.4605 2.5 12.5893 2.5H3.125V12.5Z" fill="#171719"/>
<path opacity="0.4" fill-rule="evenodd" clip-rule="evenodd" d="M2.5 1.0415C2.84518 1.0415 3.125 1.32133 3.125 1.6665V18.3332C3.125 18.6783 2.84518 18.9582 2.5 18.9582C2.15482 18.9582 1.875 18.6783 1.875 18.3332V1.6665C1.875 1.32133 2.15482 1.0415 2.5 1.0415Z" fill="#171719"/>
</svg>
