<svg width="24" height="25" viewBox="0 0 24 25" fill="none" xmlns="http://www.w3.org/2000/svg">
<circle opacity="0.4" cx="12" cy="12.3999" r="10" fill="#171719"/>
<path fill-rule="evenodd" clip-rule="evenodd" d="M12 8.1499C11.3096 8.1499 10.75 8.70955 10.75 9.3999C10.75 9.81412 10.4142 10.1499 10 10.1499C9.58579 10.1499 9.25 9.81412 9.25 9.3999C9.25 7.88112 10.4812 6.6499 12 6.6499C13.5188 6.6499 14.75 7.88112 14.75 9.3999C14.75 9.94624 14.5899 10.4575 14.3138 10.8865C14.1409 11.1553 13.9387 11.4118 13.7523 11.6435C13.7182 11.6859 13.6847 11.7274 13.6518 11.7682C13.4971 11.9596 13.3551 12.1353 13.2239 12.3157C12.9003 12.7604 12.75 13.0946 12.75 13.3999V13.8999C12.75 14.3141 12.4142 14.6499 12 14.6499C11.5858 14.6499 11.25 14.3141 11.25 13.8999V13.3999C11.25 12.6006 11.6424 11.9397 12.011 11.4332C12.1667 11.2191 12.3373 11.008 12.4925 10.8161C12.5236 10.7776 12.554 10.74 12.5836 10.7032C12.7688 10.473 12.9265 10.2706 13.0524 10.0749C13.1774 9.88059 13.25 9.64987 13.25 9.3999C13.25 8.70955 12.6904 8.1499 12 8.1499Z" fill="#171719"/>
<path fill-rule="evenodd" clip-rule="evenodd" d="M12 15.6499C12.4142 15.6499 12.75 15.9857 12.75 16.3999V17.3999C12.75 17.8141 12.4142 18.1499 12 18.1499C11.5858 18.1499 11.25 17.8141 11.25 17.3999V16.3999C11.25 15.9857 11.5858 15.6499 12 15.6499Z" fill="#171719"/>
</svg>
