<svg width="20" height="20" viewBox="0 0 20 20" fill="none" xmlns="http://www.w3.org/2000/svg">
<g opacity="0.4">
<path d="M2.07879 8.92398C1.43721 8.19397 1.55939 7.07127 2.34298 6.49621L8.04886 2.3088C9.21688 1.45161 10.8067 1.45248 11.9737 2.31094L17.6585 6.49238C18.4351 7.06364 18.5615 8.17457 17.933 8.90552L17.5436 9.3584C17.1562 9.80895 16.9431 10.3834 16.9431 10.9775V15.0212C16.9431 16.8503 15.4597 18.3332 13.6297 18.3332H6.39451C4.56453 18.3332 3.08103 16.8503 3.08103 15.0212V11.0005C3.08103 10.3971 2.86133 9.81438 2.46295 9.36109L2.07879 8.92398Z" fill="#4E0D80"/>
</g>
<circle cx="10" cy="13.3335" r="2.5" fill="#4E0D80"/>
</svg>
