<svg width="32" height="32" viewBox="0 0 32 32" fill="none" xmlns="http://www.w3.org/2000/svg">
<path d="M16.0075 0.242676C9.42762 0.242676 7.50326 0.249464 7.1292 0.280494C5.7789 0.392736 4.93866 0.605342 4.02326 1.0611C3.31781 1.4114 2.76144 1.81746 2.21235 2.38668C1.21235 3.42474 0.606293 4.70183 0.386899 6.21989C0.280232 6.95686 0.249202 7.10716 0.242899 10.8715C0.240474 12.1263 0.242899 13.7777 0.242899 15.9927C0.242899 22.5673 0.250171 24.4897 0.281687 24.863C0.390777 26.177 0.596838 27.0036 1.0332 27.9079C1.86714 29.6388 3.45987 30.9382 5.33623 31.423C5.98593 31.5903 6.7035 31.6824 7.62472 31.7261C8.01502 31.743 11.9932 31.7552 15.9738 31.7552C19.9544 31.7552 23.935 31.7503 24.3156 31.7309C25.3823 31.6807 26.0017 31.5976 26.6865 31.4206C28.575 30.9333 30.1387 29.6533 30.9896 27.8982C31.4174 27.0158 31.6344 26.1576 31.7326 24.9123C31.7539 24.6407 31.7629 20.3118 31.7629 15.9886C31.7629 11.6647 31.7532 7.34377 31.7319 7.07225C31.6325 5.8068 31.4155 4.95589 30.9738 4.05649C30.6114 3.32025 30.209 2.77043 29.6247 2.20825C28.582 1.21237 27.3069 0.606312 25.7874 0.387161C25.0511 0.280736 24.9045 0.249221 21.1372 0.242676H16.0075Z" fill="url(#paint0_radial_9736_6463)"/>
<path d="M16.0075 0.242676C9.42762 0.242676 7.50326 0.249464 7.1292 0.280494C5.7789 0.392736 4.93866 0.605342 4.02326 1.0611C3.31781 1.4114 2.76144 1.81746 2.21235 2.38668C1.21235 3.42474 0.606293 4.70183 0.386899 6.21989C0.280232 6.95686 0.249202 7.10716 0.242899 10.8715C0.240474 12.1263 0.242899 13.7777 0.242899 15.9927C0.242899 22.5673 0.250171 24.4897 0.281687 24.863C0.390777 26.177 0.596838 27.0036 1.0332 27.9079C1.86714 29.6388 3.45987 30.9382 5.33623 31.423C5.98593 31.5903 6.7035 31.6824 7.62472 31.7261C8.01502 31.743 11.9932 31.7552 15.9738 31.7552C19.9544 31.7552 23.935 31.7503 24.3156 31.7309C25.3823 31.6807 26.0017 31.5976 26.6865 31.4206C28.575 30.9333 30.1387 29.6533 30.9896 27.8982C31.4174 27.0158 31.6344 26.1576 31.7326 24.9123C31.7539 24.6407 31.7629 20.3118 31.7629 15.9886C31.7629 11.6647 31.7532 7.34377 31.7319 7.07225C31.6325 5.8068 31.4155 4.95589 30.9738 4.05649C30.6114 3.32025 30.209 2.77043 29.6247 2.20825C28.582 1.21237 27.3069 0.606312 25.7874 0.387161C25.0511 0.280736 24.9045 0.249221 21.1372 0.242676H16.0075Z" fill="url(#paint1_radial_9736_6463)"/>
<path d="M16.0002 4.36377C12.84 4.36377 12.4434 4.37759 11.2022 4.43407C9.9634 4.4908 9.11782 4.68692 8.37794 4.97468C7.61261 5.27189 6.9634 5.66947 6.31661 6.3165C5.66934 6.96328 5.27176 7.6125 4.97358 8.37759C4.6851 9.11771 4.48873 9.96353 4.43298 11.2018C4.37746 12.443 4.36292 12.8399 4.36292 16.0001C4.36292 19.1604 4.37698 19.5558 4.43322 20.797C4.49019 22.0358 4.68631 22.8813 4.97382 23.6212C5.27128 24.3866 5.66885 25.0358 6.31588 25.6826C6.96243 26.3298 7.61164 26.7284 8.37649 27.0256C9.11685 27.3133 9.96267 27.5095 11.2012 27.5662C12.4424 27.6227 12.8388 27.6365 15.9988 27.6365C19.1593 27.6365 19.5547 27.6227 20.7959 27.5662C22.0347 27.5095 22.8812 27.3133 23.6216 27.0256C24.3867 26.7284 25.0349 26.3298 25.6815 25.6826C26.3287 25.0358 26.7263 24.3866 27.0245 23.6215C27.3105 22.8813 27.5069 22.0355 27.5651 20.7972C27.6209 19.556 27.6354 19.1604 27.6354 16.0001C27.6354 12.8399 27.6209 12.4433 27.5651 11.2021C27.5069 9.96328 27.3105 9.11771 27.0245 8.37783C26.7263 7.6125 26.3287 6.96328 25.6815 6.3165C25.0342 5.66922 24.3869 5.27165 23.6209 4.97468C22.879 4.68692 22.033 4.4908 20.7942 4.43407C19.553 4.37759 19.1578 4.36377 15.9966 4.36377H16.0002ZM14.9564 6.46074C15.2662 6.46025 15.6119 6.46074 16.0002 6.46074C19.1072 6.46074 19.4754 6.47189 20.7023 6.52765C21.8369 6.57953 22.4526 6.7691 22.8628 6.92838C23.4058 7.13928 23.793 7.39141 24.2 7.79868C24.6073 8.20595 24.8594 8.59383 25.0708 9.13686C25.2301 9.54656 25.4199 10.1623 25.4715 11.2969C25.5273 12.5235 25.5394 12.892 25.5394 15.9975C25.5394 19.1029 25.5273 19.4714 25.4715 20.6981C25.4196 21.8326 25.2301 22.4484 25.0708 22.8581C24.8599 23.4011 24.6073 23.7878 24.2 24.1948C23.7927 24.6021 23.4061 24.8542 22.8628 25.0651C22.4531 25.2251 21.8369 25.4142 20.7023 25.4661C19.4756 25.5218 19.1072 25.534 16.0002 25.534C12.8931 25.534 12.5249 25.5218 11.2982 25.4661C10.1636 25.4137 9.54788 25.2241 9.13746 25.0649C8.59443 24.854 8.20655 24.6018 7.79928 24.1946C7.39201 23.7873 7.13988 23.4004 6.92849 22.8571C6.76922 22.4474 6.5794 21.8316 6.52776 20.6971C6.47201 19.4704 6.46085 19.102 6.46085 15.9946C6.46085 12.8872 6.47201 12.5206 6.52776 11.294C6.57964 10.1594 6.76922 9.54365 6.92849 9.13347C7.1394 8.59044 7.39201 8.20256 7.79928 7.79528C8.20655 7.38801 8.59443 7.13589 9.13746 6.9245C9.54764 6.7645 10.1636 6.57541 11.2982 6.52328C12.3716 6.4748 12.7876 6.46025 14.9564 6.45783V6.46074ZM22.2116 8.39286C21.4407 8.39286 20.8153 9.01759 20.8153 9.78874C20.8153 10.5596 21.4407 11.1851 22.2116 11.1851C22.9825 11.1851 23.608 10.5596 23.608 9.78874C23.608 9.01783 22.9825 8.39238 22.2116 8.39238V8.39286ZM16.0002 10.0244C12.7001 10.0244 10.0245 12.7 10.0245 16.0001C10.0245 19.3003 12.7001 21.9747 16.0002 21.9747C19.3004 21.9747 21.975 19.3003 21.975 16.0001C21.975 12.7 19.3004 10.0244 16.0002 10.0244ZM16.0002 12.1213C18.1423 12.1213 19.879 13.8578 19.879 16.0001C19.879 18.1422 18.1423 19.8789 16.0002 19.8789C13.8579 19.8789 12.1215 18.1422 12.1215 16.0001C12.1215 13.8578 13.8579 12.1213 16.0002 12.1213Z" fill="white"/>
<defs>
<radialGradient id="paint0_radial_9736_6463" cx="0" cy="0" r="1" gradientUnits="userSpaceOnUse" gradientTransform="translate(8.61465 34.1823) rotate(-90) scale(31.2312 29.0554)">
<stop stop-color="#FFDD55"/>
<stop offset="0.1" stop-color="#FFDD55"/>
<stop offset="0.5" stop-color="#FF543E"/>
<stop offset="1" stop-color="#C837AB"/>
</radialGradient>
<radialGradient id="paint1_radial_9736_6463" cx="0" cy="0" r="1" gradientUnits="userSpaceOnUse" gradientTransform="translate(-5.03813 2.51278) rotate(78.6776) scale(13.9606 57.5608)">
<stop stop-color="#3771C8"/>
<stop offset="0.128" stop-color="#3771C8"/>
<stop offset="1" stop-color="#6600FF" stop-opacity="0"/>
</radialGradient>
</defs>
</svg>
