<svg width="24" height="25" viewBox="0 0 24 25" fill="none" xmlns="http://www.w3.org/2000/svg">
<path opacity="0.4" d="M2 6.5C2 4.29086 3.79086 2.5 6 2.5H18C20.2091 2.5 22 4.29086 22 6.5V18.5C22 20.7091 20.2091 22.5 18 22.5H6C3.79086 22.5 2 20.7091 2 18.5V6.5Z" fill="#252525"/>
<circle cx="18" cy="6.5" r="1" fill="#252525"/>
<path fill-rule="evenodd" clip-rule="evenodd" d="M12 17.5C14.7614 17.5 17 15.2614 17 12.5C17 9.73858 14.7614 7.5 12 7.5C9.23858 7.5 7 9.73858 7 12.5C7 15.2614 9.23858 17.5 12 17.5ZM12 15.5C13.6569 15.5 15 14.1569 15 12.5C15 10.8431 13.6569 9.5 12 9.5C10.3431 9.5 9 10.8431 9 12.5C9 14.1569 10.3431 15.5 12 15.5Z" fill="#252525"/>
</svg>
