<svg width="16" height="17" viewBox="0 0 16 17" fill="none" xmlns="http://www.w3.org/2000/svg">
<path fill-rule="evenodd" clip-rule="evenodd" d="M9.76774 6.73246C9.963 6.92772 9.963 7.2443 9.76774 7.43957L6.93931 10.268C6.74405 10.4633 6.42747 10.4633 6.2322 10.268C6.03694 10.0727 6.03694 9.75615 6.2322 9.56089L9.06063 6.73246C9.25589 6.5372 9.57248 6.5372 9.76774 6.73246Z" fill="#171719"/>
<path opacity="0.4" fill-rule="evenodd" clip-rule="evenodd" d="M12.0909 4.40936C11.0588 3.37732 9.38553 3.37732 8.35348 4.40936L7.24237 5.52048C7.04711 5.71574 6.73052 5.71574 6.53526 5.52048C6.34 5.32522 6.34 5.00863 6.53526 4.81337L7.64638 3.70225C9.06895 2.27969 11.3754 2.27968 12.798 3.70225C14.2205 5.12482 14.2205 7.43126 12.798 8.85383L11.6868 9.96495C11.4916 10.1602 11.175 10.1602 10.9797 9.96495C10.7845 9.76969 10.7845 9.45311 10.9797 9.25784L12.0909 8.14673C13.1229 7.11468 13.1229 5.44141 12.0909 4.40936Z" fill="#171719"/>
<path opacity="0.4" fill-rule="evenodd" clip-rule="evenodd" d="M3.90903 12.5906C4.94107 13.6227 6.61435 13.6227 7.64639 12.5906L8.75751 11.4795C8.95277 11.2843 9.26935 11.2843 9.46462 11.4795C9.65988 11.6748 9.65988 11.9914 9.46462 12.1866L8.3535 13.2977C6.93093 14.7203 4.62449 14.7203 3.20192 13.2977C1.77935 11.8752 1.77935 9.56874 3.20192 8.14617L4.31304 7.03505C4.5083 6.83979 4.82488 6.83979 5.02015 7.03505C5.21541 7.23031 5.21541 7.54689 5.02015 7.74216L3.90903 8.85327C2.87698 9.88532 2.87698 11.5586 3.90903 12.5906Z" fill="#171719"/>
</svg>
