<svg width="24" height="25" viewBox="0 0 24 25" fill="none" xmlns="http://www.w3.org/2000/svg">
<path fill-rule="evenodd" clip-rule="evenodd" d="M19.1464 14.0395C18.8536 14.3324 18.8536 14.8073 19.1464 15.1002C19.4393 15.393 19.9142 15.393 20.2071 15.1002L21.5 13.8073C22.1834 13.1238 22.1834 12.0158 21.5 11.3324L20.2071 10.0395C19.9142 9.7466 19.4393 9.7466 19.1464 10.0395C18.8536 10.3324 18.8536 10.8073 19.1464 11.1002L19.8661 11.8198H13.75C13.3358 11.8198 13 12.1556 13 12.5698C13 12.984 13.3358 13.3198 13.75 13.3198H19.8661L19.1464 14.0395Z" fill="#171719"/>
<path fill-rule="evenodd" clip-rule="evenodd" d="M6.75 21.3501H14C16.6234 21.3501 18.75 19.2235 18.75 16.6001C18.75 16.1859 18.4142 15.8501 18 15.8501C17.5858 15.8501 17.25 16.1859 17.25 16.6001C17.25 18.395 15.7949 19.8501 14 19.8501H10.2141C9.34758 20.7734 8.11614 21.3501 6.75 21.3501ZM10.2141 5.3501H14C15.7949 5.3501 17.25 6.80517 17.25 8.6001C17.25 9.01431 17.5858 9.3501 18 9.3501C18.4142 9.3501 18.75 9.01431 18.75 8.6001C18.75 5.97675 16.6234 3.8501 14 3.8501H6.75C8.11614 3.8501 9.34758 4.42683 10.2141 5.3501Z" fill="#171719"/>
<path opacity="0.4" fill-rule="evenodd" clip-rule="evenodd" d="M2 8.6001C2 5.97675 4.12665 3.8501 6.75 3.8501C9.37335 3.8501 11.5 5.97675 11.5 8.6001V16.6001C11.5 19.2235 9.37335 21.3501 6.75 21.3501C4.12665 21.3501 2 19.2235 2 16.6001V8.6001Z" fill="#171719"/>
</svg>
