<svg width="16" height="16" viewBox="0 0 16 16" fill="none" xmlns="http://www.w3.org/2000/svg">
<path opacity="0.4" d="M3.78638 5.86269C4.03584 3.66057 5.84726 2 7.99996 2C10.1527 2 11.9641 3.66057 12.2135 5.86269L12.4435 7.89233C12.5006 8.39666 12.705 8.87125 13.0296 9.25337C13.7186 10.0643 13.1594 11.3333 12.1132 11.3333H3.88672C2.8405 11.3333 2.28135 10.0643 2.97029 9.25337C3.29494 8.87125 3.49934 8.39666 3.55647 7.89233L3.78638 5.86269Z" fill="#353438"/>
<path d="M8 14.0002C8.92335 14.0002 9.70888 13.4436 10 12.6668C10 12.4827 9.85076 12.3335 9.66667 12.3335H6.33333C6.14924 12.3335 6 12.4827 6 12.6668C6.29112 13.4436 7.07665 14.0002 8 14.0002Z" fill="#353438"/>
</svg>
