<svg width="20" height="20" viewBox="0 0 20 20" fill="none" xmlns="http://www.w3.org/2000/svg">
<path opacity="0.4" d="M17.5 14.9998V4.99984C17.5 3.15889 16.0076 1.6665 14.1667 1.6665H5.83333C3.99238 1.6665 2.5 3.15889 2.5 4.99984V14.9998C2.5 16.8408 3.99238 18.3332 5.83333 18.3332H14.1667C16.0076 18.3332 17.5 16.8408 17.5 14.9998Z" fill="#171719"/>
<path fill-rule="evenodd" clip-rule="evenodd" d="M6.04166 5.8335C6.04166 5.48832 6.32148 5.2085 6.66666 5.2085H9.99999C10.3452 5.2085 10.625 5.48832 10.625 5.8335C10.625 6.17867 10.3452 6.4585 9.99999 6.4585H6.66666C6.32148 6.4585 6.04166 6.17867 6.04166 5.8335Z" fill="#171719"/>
<path fill-rule="evenodd" clip-rule="evenodd" d="M6.04166 10C6.04166 9.65482 6.32148 9.375 6.66666 9.375H13.3333C13.6785 9.375 13.9583 9.65482 13.9583 10C13.9583 10.3452 13.6785 10.625 13.3333 10.625H6.66666C6.32148 10.625 6.04166 10.3452 6.04166 10Z" fill="#171719"/>
<path fill-rule="evenodd" clip-rule="evenodd" d="M6.04166 14.1665C6.04166 13.8213 6.32148 13.5415 6.66666 13.5415H13.3333C13.6785 13.5415 13.9583 13.8213 13.9583 14.1665C13.9583 14.5117 13.6785 14.7915 13.3333 14.7915H6.66666C6.32148 14.7915 6.04166 14.5117 6.04166 14.1665Z" fill="#171719"/>
<path fill-rule="evenodd" clip-rule="evenodd" d="M15 1.0415C15.3452 1.0415 15.625 1.32133 15.625 1.6665V3.5415L17.5 3.5415C17.8452 3.5415 18.125 3.82133 18.125 4.1665C18.125 4.51168 17.8452 4.7915 17.5 4.7915H15.625V6.6665C15.625 7.01168 15.3452 7.2915 15 7.2915C14.6548 7.2915 14.375 7.01168 14.375 6.6665V4.7915L12.5 4.7915C12.1548 4.7915 11.875 4.51168 11.875 4.1665C11.875 3.82133 12.1548 3.5415 12.5 3.5415L14.375 3.5415V1.6665C14.375 1.32133 14.6548 1.0415 15 1.0415Z" fill="#171719"/>
</svg>
