<svg width="14" height="15" viewBox="0 0 14 15" fill="none" xmlns="http://www.w3.org/2000/svg">
<g opacity="0.4">
<path d="M7.49996 14.1673H6.16663C3.95749 14.1673 2.16663 12.3765 2.16663 10.1673V2.83398H11.5V10.1673C11.5 12.3765 9.7091 14.1673 7.49996 14.1673Z" fill="#131316"/>
</g>
<path fill-rule="evenodd" clip-rule="evenodd" d="M8.16663 5.66797C8.44277 5.66797 8.66663 5.89183 8.66663 6.16797L8.66663 10.168C8.66663 10.4441 8.44277 10.668 8.16663 10.668C7.89048 10.668 7.66663 10.4441 7.66663 10.168L7.66663 6.16797C7.66663 5.89183 7.89048 5.66797 8.16663 5.66797Z" fill="#131316"/>
<path fill-rule="evenodd" clip-rule="evenodd" d="M5.5 5.66797C5.77614 5.66797 6 5.89183 6 6.16797L6 10.168C6 10.4441 5.77614 10.668 5.5 10.668C5.22386 10.668 5 10.4441 5 10.168L5 6.16797C5 5.89183 5.22386 5.66797 5.5 5.66797Z" fill="#131316"/>
<path fill-rule="evenodd" clip-rule="evenodd" d="M4.68813 1.15037C5.02815 0.640336 5.60058 0.333984 6.21356 0.333984H7.45307C8.06605 0.333984 8.63847 0.640336 8.97849 1.15037L9.76757 2.33398H12.8333C13.1095 2.33398 13.3333 2.55784 13.3333 2.83398C13.3333 3.11013 13.1095 3.33398 12.8333 3.33398H0.833313C0.557171 3.33398 0.333313 3.11013 0.333313 2.83398C0.333313 2.55784 0.557171 2.33398 0.833313 2.33398H3.89905L4.68813 1.15037Z" fill="#131316"/>
</svg>
