<svg width="24" height="25" viewBox="0 0 24 25" fill="none" xmlns="http://www.w3.org/2000/svg">
<path opacity="0.4" d="M15.2863 4.5C13.1825 4.5 11.477 6.29086 11.477 8.5C11.477 8.83382 11.5159 9.15809 11.5893 9.46808C9.56635 9.46808 6.51939 9.05908 3.97468 6.50961C3.6363 6.17059 3.01233 6.39726 3.0358 6.87568C3.41293 14.5627 6.70501 16.8049 8.40034 16.9444C7.3056 18.0257 5.71534 18.8791 4.11513 19.2622C3.69281 19.3633 3.58848 19.8256 4.00144 19.9599C5.14647 20.3323 6.78541 20.4758 7.66759 20.5C13.9084 20.5 18.9809 15.2471 19.0938 8.72229C19.9131 8.18945 20.438 7.0325 20.7329 6.21291C20.8047 6.0133 20.4775 5.78073 20.2817 5.86226C19.6696 6.11708 18.8926 6.17749 18.2306 5.96181C17.532 5.06927 16.4725 4.5 15.2863 4.5Z" fill="#252525"/>
</svg>
