<svg width="16" height="16" viewBox="0 0 16 16" fill="none" xmlns="http://www.w3.org/2000/svg">
<path opacity="0.4" d="M4.91667 6.25L11.5833 6.25C13.0561 6.25 14.25 7.44391 14.25 8.91667L14.25 11.5833C14.25 13.0561 13.0561 14.25 11.5833 14.25L4.91667 14.25C3.44391 14.25 2.25 13.0561 2.25 11.5833L2.25 8.91667C2.25 7.44391 3.44391 6.25 4.91667 6.25Z" fill="#E8E8E9"/>
<path fill-rule="evenodd" clip-rule="evenodd" d="M5.89645 4.60355C5.70118 4.40829 5.70118 4.09171 5.89645 3.89645L7.89645 1.89645C8.09171 1.70119 8.40829 1.70119 8.60355 1.89645L10.6036 3.89645C10.7988 4.09171 10.7988 4.40829 10.6036 4.60355C10.4083 4.79882 10.0917 4.79882 9.89645 4.60355L8.75 3.45711V10.25C8.75 10.5261 8.52614 10.75 8.25 10.75C7.97386 10.75 7.75 10.5261 7.75 10.25V3.45711L6.60355 4.60355C6.40829 4.79882 6.09171 4.79882 5.89645 4.60355Z" fill="#E8E8E9"/>
</svg>
